<svg width="629" height="209" viewBox="0 0 629 209" fill="none" xmlns="http://www.w3.org/2000/svg">
<path d="M162 61H159.647H77.3531H75V63.3531V145.647V148H77.3531H159.647H162V145.647V63.3531V61V61ZM159.647 145.647H77.3531V63.3531H159.647V145.647Z" fill="white"/>
<path d="M92.9426 108.161V133.685C92.9426 135.679 93.8577 136.627 95.2957 136.627C96.3415 136.627 97.1912 136.3 98.041 135.81L98.4005 139.568C97.3547 140.058 95.5571 140.647 93.5635 140.647C90.3607 140.647 88.2363 139.013 88.2363 134.797V108.193H92.9426V108.161Z" fill="white"/>
<path d="M110.559 136.888C113.37 136.888 115.429 135.581 116.638 134.502V129.044C115.723 128.816 114.416 128.652 113.109 128.652C108.958 128.652 105.755 129.992 105.755 133.064C105.788 135.646 107.683 136.888 110.559 136.888ZM103.206 117.802C105.461 116.854 108.795 116.168 111.834 116.168C118.566 116.168 121.344 120.089 121.344 125.155V140.189H116.638V137.607C114.971 139.176 112.586 140.614 109.089 140.614C104.023 140.614 101.049 137.869 101.049 133.522C101.049 127.868 105.592 125.188 112.161 125.188C113.828 125.188 115.331 125.384 116.638 125.645V125.384C116.638 121.854 114.939 120.188 111.442 120.188C108.958 120.188 106.082 120.874 104.056 121.854L103.206 117.802Z" fill="white"/>
<path d="M136.443 120.286C133.828 120.286 131.442 121.626 130.07 123.096V133.881C131.344 135.189 133.73 136.529 136.443 136.529C141.149 136.529 144.188 133.195 144.188 128.358C144.221 123.587 141.149 120.286 136.443 120.286ZM137.652 140.647C134.253 140.647 131.736 139.241 130.07 137.411V140.222H125.363V108.193H130.07V119.338C131.769 117.573 134.416 116.233 137.652 116.233C144.417 116.233 148.96 121.299 148.96 128.424C148.96 135.548 144.417 140.647 137.652 140.647Z" fill="white"/>
<path d="M103.433 99.1729C108.27 99.1729 110.721 97.3754 110.721 93.9438C110.721 89.9238 107.682 88.3224 102.551 88.3224H93.5958V99.1729H103.433ZM100.786 83.5835C105.198 83.5835 108.074 82.0801 108.074 78.5831C108.074 74.792 105.394 73.452 101.015 73.452H93.5631V83.5835H100.786ZM88.2686 68.8112H101.799C109.152 68.8112 113.663 71.6872 113.663 77.9622C113.663 81.8187 111.342 84.4006 107.813 85.5771C113.172 86.4922 116.441 89.2702 116.441 94.532C116.441 100.186 112.225 103.781 104.152 103.781H88.2686V68.8112Z" fill="white"/>
<path d="M132.784 87.0151C128.339 87.0151 124.744 83.9757 124.744 80.1845C124.744 76.4261 128.339 73.3539 132.784 73.3539C137.228 73.3539 140.823 76.3934 140.823 80.1845C140.823 83.9757 137.228 87.0151 132.784 87.0151ZM133.012 68.2882C125.299 68.2882 119.58 73.1579 119.58 80.5114C119.58 87.5707 124.286 91.754 132.293 91.754C137.915 91.754 141.412 89.0741 143.242 87.1458C142.948 94.3359 139.484 99.2709 132.293 99.2709C128.077 99.2709 124.482 97.7022 122.718 96.4929L121.083 100.807C122.946 102.016 127.424 103.814 132.882 103.814C142.981 103.814 148.536 96.6237 148.536 86.1327C148.569 75.4129 142.981 68.2882 133.012 68.2882Z" fill="white"/>
<path d="M465.113 68.5476C469.451 68.5476 472.967 65.0315 472.967 60.6941C472.967 56.3567 469.451 52.8405 465.113 52.8405C460.776 52.8405 457.26 56.3567 457.26 60.6941C457.26 65.0315 460.776 68.5476 465.113 68.5476Z" fill="#EC1D24"/>
<path d="M445.518 67.2257C441.941 69.6362 437.042 68.6253 434.71 64.9707C432.299 61.3939 433.31 56.4951 436.965 54.1624C439.608 52.4517 442.952 52.4517 445.596 54.1624C446.995 50.0412 449.639 46.3866 453.216 43.8205C443.963 37.2111 431.055 39.3883 424.446 48.7193C417.836 57.9725 420.013 70.8803 429.344 77.4898C436.498 82.544 446.062 82.544 453.216 77.4898C449.561 75.0015 446.918 71.3469 445.518 67.2257Z" fill="#EC1D24"/>
<path d="M343.888 157.969V161.702H348.087V162.79H343.888V166.6H348.553V167.767H342.488V156.803H348.553V157.969H343.888V157.969Z" fill="#EC1D24"/>
<path d="M366.284 167.767L363.562 163.412L361.074 167.767H359.441L362.785 162.168L359.363 156.803H361.074L363.795 161.08L366.284 156.803H367.917L364.573 162.324L367.994 167.767H366.284V167.767Z" fill="#EC1D24"/>
<path d="M380.591 163.335V167.767H379.113V156.803H382.612C383.857 156.803 384.79 157.114 385.412 157.658C386.034 158.28 386.345 159.058 386.345 160.069C386.345 161.08 386.034 161.935 385.412 162.479C384.79 163.024 383.857 163.335 382.612 163.335H380.591V163.335ZM384.401 161.624C384.79 161.235 384.945 160.769 384.945 160.069C384.945 159.369 384.79 158.902 384.401 158.514C384.012 158.125 383.39 157.969 382.535 157.969H380.591V162.168H382.535C383.39 162.168 384.012 162.013 384.401 161.624Z" fill="#EC1D24"/>
<path d="M399.175 157.969V161.702H403.374V162.79H399.175V166.6H403.84V167.767H397.775V156.803H403.84V157.969H399.175V157.969Z" fill="#EC1D24"/>
<path d="M421.26 167.767L418.383 163.257H416.827V167.767H415.428V156.803H419.005C420.249 156.803 421.182 157.114 421.804 157.658C422.426 158.28 422.737 159.058 422.737 160.069C422.737 160.924 422.504 161.702 421.959 162.246C421.493 162.79 420.715 163.101 419.782 163.257L422.737 167.767H421.26V167.767ZM416.827 162.246H418.927C420.56 162.246 421.337 161.546 421.337 160.147C421.337 158.747 420.56 158.047 418.927 158.047H416.827V162.246Z" fill="#EC1D24"/>
<path d="M441.007 156.803V157.969H437.897V167.767H436.497V157.969H433.387V156.803H441.007Z" fill="#EC1D24"/>
<path d="M472.501 156.803V157.969H469.391V167.767H467.991V157.969H464.881V156.803H472.501Z" fill="#EC1D24"/>
<path d="M489.451 167.767L486.574 163.257H485.019V167.767H483.619V156.803H487.196C488.44 156.803 489.373 157.114 489.995 157.658C490.617 158.28 490.928 159.058 490.928 160.069C490.928 160.924 490.695 161.702 490.151 162.246C489.684 162.79 488.907 163.101 487.974 163.257L490.928 167.767H489.451V167.767ZM485.019 162.246H487.118C488.751 162.246 489.529 161.546 489.529 160.147C489.529 158.747 488.751 158.047 487.118 158.047H485.019V162.246Z" fill="#EC1D24"/>
<path d="M508.891 165.201H504.07L503.137 167.767H501.582L505.625 157.036H507.258L511.302 167.767H509.747L508.891 165.201ZM508.502 164.112L506.481 158.591L504.459 164.112H508.502Z" fill="#EC1D24"/>
<path d="M530.663 157.658C531.518 158.28 532.14 159.213 532.451 160.38H530.974C530.663 159.68 530.274 159.058 529.652 158.669C529.03 158.203 528.252 158.047 527.397 158.047C526.697 158.047 526.075 158.203 525.453 158.591C524.831 158.98 524.442 159.447 524.131 160.069C523.82 160.691 523.665 161.468 523.665 162.324C523.665 163.179 523.82 163.957 524.131 164.579C524.442 165.201 524.909 165.745 525.453 166.056C525.997 166.367 526.619 166.6 527.397 166.6C528.33 166.6 529.03 166.367 529.652 165.978C530.274 165.59 530.741 164.968 530.974 164.268H532.451C532.14 165.434 531.518 166.289 530.663 166.989C529.807 167.689 528.719 168 527.319 168C526.308 168 525.375 167.767 524.598 167.3C523.82 166.834 523.198 166.134 522.731 165.356C522.265 164.501 522.109 163.568 522.109 162.479C522.109 161.391 522.343 160.458 522.731 159.602C523.198 158.747 523.82 158.125 524.598 157.581C525.375 157.114 526.308 156.881 527.319 156.881C528.719 156.725 529.807 157.036 530.663 157.658Z" fill="#EC1D24"/>
<path d="M546.915 162.246L551.891 167.767H550.181L545.593 162.635V167.767H544.193V156.803H545.593V161.857L550.181 156.803H551.891L546.915 162.246Z" fill="#EC1D24"/>
<path d="M355.629 125.778C357.262 127.022 358.351 128.81 358.817 130.987H354.696C354.23 129.899 353.608 129.121 352.675 128.499C351.741 127.877 350.653 127.566 349.409 127.566C348.398 127.566 347.387 127.799 346.609 128.344C345.754 128.888 345.132 129.588 344.665 130.599C344.199 131.532 343.966 132.698 343.966 134.02C343.966 135.342 344.199 136.43 344.665 137.441C345.132 138.374 345.754 139.152 346.609 139.696C347.465 140.241 348.398 140.474 349.409 140.474C350.653 140.474 351.741 140.163 352.675 139.541C353.608 138.919 354.23 138.063 354.696 137.052H358.817C358.273 139.23 357.185 140.94 355.629 142.262C353.996 143.506 351.975 144.128 349.486 144.128C347.62 144.128 345.91 143.74 344.51 142.884C343.11 142.029 341.944 140.863 341.166 139.307C340.389 137.752 340 136.042 340 134.098C340 132.154 340.389 130.365 341.166 128.888C341.944 127.333 343.11 126.166 344.51 125.311C345.91 124.456 347.62 124.067 349.486 124.067C351.975 123.834 353.996 124.456 355.629 125.778Z" fill="white"/>
<path d="M373.358 129.043C374.524 129.666 375.535 130.599 376.235 131.765C376.934 132.931 377.245 134.409 377.245 136.042C377.245 137.675 376.934 139.074 376.235 140.241C375.535 141.407 374.602 142.34 373.358 142.962C372.191 143.584 370.792 143.895 369.314 143.895C367.837 143.895 366.437 143.584 365.271 142.962C364.104 142.34 363.093 141.407 362.394 140.241C361.694 139.074 361.383 137.675 361.383 136.042C361.383 134.409 361.694 133.009 362.394 131.765C363.093 130.599 364.027 129.666 365.271 129.043C366.437 128.421 367.837 128.11 369.314 128.11C370.792 128.11 372.113 128.421 373.358 129.043ZM366.437 132.698C365.66 133.476 365.271 134.564 365.271 136.042C365.271 137.519 365.66 138.608 366.437 139.385C367.215 140.163 368.148 140.552 369.236 140.552C370.325 140.552 371.258 140.163 372.036 139.385C372.813 138.608 373.202 137.519 373.202 136.042C373.202 134.564 372.813 133.476 372.036 132.698C371.258 131.921 370.325 131.532 369.236 131.532C368.148 131.532 367.215 131.921 366.437 132.698Z" fill="white"/>
<path d="M386.578 128.888C387.511 128.344 388.599 128.033 389.766 128.033V132.232H388.599C385.722 132.232 384.245 133.553 384.245 136.275V143.74H380.279V128.266H384.245V131.221C384.867 130.288 385.567 129.51 386.578 128.888Z" fill="white"/>
<path d="M401.585 129.043C402.518 129.665 403.14 130.521 403.607 131.532V123.134H407.495V143.817H403.607V140.551C403.218 141.562 402.518 142.418 401.585 143.04C400.652 143.662 399.563 143.973 398.242 143.973C396.92 143.973 395.753 143.662 394.742 143.04C393.732 142.418 392.876 141.485 392.332 140.318C391.71 139.152 391.477 137.674 391.477 136.041C391.477 134.409 391.788 133.009 392.332 131.765C392.954 130.598 393.732 129.665 394.742 129.043C395.753 128.421 396.997 128.11 398.242 128.11C399.563 128.11 400.73 128.421 401.585 129.043ZM396.531 132.776C395.753 133.553 395.442 134.642 395.442 136.041C395.442 137.441 395.831 138.53 396.531 139.307C397.308 140.085 398.242 140.474 399.486 140.474C400.652 140.474 401.663 140.085 402.44 139.23C403.218 138.452 403.607 137.363 403.607 135.964C403.607 134.564 403.218 133.475 402.44 132.698C401.663 131.92 400.652 131.454 399.486 131.454C398.242 131.532 397.308 131.92 396.531 132.776Z" fill="white"/>
<path d="M420.868 129.043C421.801 129.666 422.501 130.521 422.89 131.532V128.344H426.778V143.817H422.89V140.552C422.501 141.562 421.801 142.418 420.868 143.04C419.935 143.662 418.847 143.973 417.525 143.973C416.203 143.973 415.036 143.662 414.026 143.04C413.015 142.418 412.159 141.485 411.615 140.318C410.993 139.152 410.76 137.675 410.76 136.042C410.76 134.409 411.071 133.009 411.615 131.765C412.237 130.599 413.015 129.666 414.026 129.043C415.036 128.421 416.281 128.11 417.525 128.11C418.769 128.11 419.935 128.421 420.868 129.043ZM415.736 132.776C414.959 133.553 414.648 134.642 414.648 136.042C414.648 137.441 415.036 138.53 415.736 139.308C416.514 140.085 417.447 140.474 418.691 140.474C419.857 140.474 420.868 140.085 421.646 139.23C422.423 138.452 422.812 137.364 422.812 135.964C422.812 134.564 422.423 133.476 421.646 132.698C420.868 131.92 419.857 131.454 418.691 131.454C417.447 131.532 416.514 131.92 415.736 132.776Z" fill="white"/>
<path d="M450.418 124.067V127.177H444.975V143.817H441.009V127.177H435.566V124.067H450.418Z" fill="white"/>
<path d="M459.127 128.888C460.06 128.344 461.148 128.033 462.315 128.033V132.232H461.148C458.271 132.232 456.794 133.553 456.794 136.275V143.74H452.828V128.266H456.794V131.221C457.416 130.288 458.193 129.51 459.127 128.888Z" fill="white"/>
<path d="M474.212 129.043C475.145 129.666 475.845 130.521 476.233 131.532V128.344H480.121V143.817H476.233V140.552C475.845 141.562 475.145 142.418 474.212 143.04C473.279 143.662 472.19 143.973 470.868 143.973C469.546 143.973 468.38 143.662 467.369 143.04C466.358 142.418 465.503 141.485 464.881 140.318C464.259 139.152 464.025 137.675 464.025 136.042C464.025 134.409 464.336 133.009 464.881 131.765C465.425 130.521 466.28 129.666 467.369 129.043C468.38 128.421 469.624 128.11 470.868 128.11C472.19 128.11 473.279 128.421 474.212 129.043ZM469.157 132.776C468.38 133.553 468.069 134.642 468.069 136.042C468.069 137.441 468.458 138.53 469.157 139.308C469.935 140.085 470.868 140.474 472.112 140.474C473.279 140.474 474.289 140.085 475.067 139.23C475.845 138.452 476.233 137.364 476.233 135.964C476.233 134.564 475.845 133.476 475.067 132.698C474.289 131.92 473.279 131.454 472.112 131.454C470.868 131.532 469.857 131.92 469.157 132.776Z" fill="white"/>
<path d="M484.241 122.278C484.707 121.89 485.252 121.656 486.029 121.656C486.729 121.656 487.351 121.89 487.818 122.278C488.284 122.667 488.518 123.212 488.518 123.834C488.518 124.456 488.284 124.922 487.818 125.389C487.351 125.778 486.807 126.011 486.029 126.011C485.329 126.011 484.707 125.778 484.241 125.389C483.774 125 483.541 124.456 483.541 123.834C483.541 123.212 483.774 122.667 484.241 122.278ZM487.973 128.266V143.74H484.008V128.266H487.973Z" fill="white"/>
<path d="M505.313 129.821C506.402 130.987 506.946 132.62 506.946 134.797V143.817H503.058V135.264C503.058 134.02 502.747 133.087 502.125 132.387C501.503 131.687 500.648 131.376 499.559 131.376C498.471 131.376 497.538 131.765 496.838 132.465C496.138 133.165 495.827 134.253 495.827 135.575V143.817H491.861V128.344H495.827V131.454C496.216 130.443 496.916 129.588 497.849 129.043C498.782 128.421 499.87 128.188 501.115 128.188C502.825 128.032 504.225 128.655 505.313 129.821Z" fill="white"/>
<path d="M510.913 122.278C511.379 121.89 511.924 121.656 512.701 121.656C513.401 121.656 514.023 121.89 514.49 122.278C514.956 122.667 515.189 123.212 515.189 123.834C515.189 124.456 514.956 124.922 514.49 125.389C514.023 125.778 513.479 126.011 512.701 126.011C512.001 126.011 511.379 125.778 510.913 125.389C510.446 125 510.213 124.456 510.213 123.834C510.213 123.212 510.446 122.667 510.913 122.278ZM514.645 128.266V143.74H510.679V128.266H514.645Z" fill="white"/>
<path d="M531.983 129.821C533.072 130.987 533.616 132.62 533.616 134.797V143.817H529.728V135.264C529.728 134.02 529.417 133.087 528.795 132.387C528.173 131.687 527.318 131.376 526.229 131.376C525.141 131.376 524.208 131.765 523.508 132.465C522.808 133.165 522.497 134.253 522.497 135.575V143.817H518.531V128.344H522.497V131.454C522.886 130.443 523.586 129.588 524.519 129.043C525.452 128.421 526.54 128.188 527.784 128.188C529.495 128.032 530.895 128.655 531.983 129.821Z" fill="white"/>
<path d="M546.759 129.043C547.692 129.666 548.392 130.521 548.78 131.532V128.344H552.668V143.895C552.668 145.295 552.357 146.617 551.813 147.783C551.269 148.95 550.413 149.805 549.247 150.505C548.08 151.127 546.759 151.516 545.126 151.516C542.871 151.516 541.082 150.971 539.683 149.883C538.283 148.794 537.428 147.394 537.194 145.528H541.082C541.315 146.306 541.704 146.928 542.404 147.394C543.026 147.861 543.882 148.016 544.892 148.016C546.059 148.016 546.992 147.705 547.692 147.006C548.391 146.306 548.78 145.295 548.78 143.895V140.629C548.392 141.64 547.692 142.496 546.759 143.118C545.825 143.74 544.737 144.051 543.415 144.051C542.093 144.051 540.927 143.74 539.916 143.118C538.905 142.496 538.05 141.562 537.428 140.396C536.806 139.23 536.572 137.752 536.572 136.119C536.572 134.487 536.883 133.087 537.428 131.843C537.972 130.599 538.827 129.743 539.916 129.121C540.927 128.499 542.171 128.188 543.415 128.188C544.737 128.11 545.825 128.421 546.759 129.043ZM541.704 132.776C540.927 133.553 540.616 134.642 540.616 136.042C540.616 137.441 541.004 138.53 541.704 139.308C542.482 140.085 543.415 140.474 544.659 140.474C545.825 140.474 546.836 140.085 547.614 139.23C548.392 138.452 548.78 137.364 548.78 135.964C548.78 134.564 548.392 133.476 547.614 132.698C546.836 131.921 545.825 131.454 544.659 131.454C543.415 131.532 542.404 131.921 541.704 132.776Z" fill="white"/>
</svg>
