<?xml version="1.0" encoding="utf-8"?>
<!-- Generator: Adobe Illustrator 24.0.1, SVG Export Plug-In . SVG Version: 6.00 Build 0)  -->
<svg version="1.1" id="Icon-02" xmlns="http://www.w3.org/2000/svg" xmlns:xlink="http://www.w3.org/1999/xlink" x="0px" y="0px"
	 viewBox="0 0 300 300" style="enable-background:new 0 0 300 300;" xml:space="preserve">
<style type="text/css">
	.st0{fill:#ec1d24;}
</style>
<g>
	<g>
		<path class="st0" d="M194.5,141.8h-89.7c-16,0-29,13-29,29v29.9c0,7.1,33.1,12.8,73.8,12.8s73.8-5.7,73.8-12.8v-29.9
			C223.5,154.8,210.5,141.8,194.5,141.8z M149.6,211.2c-33.4,0-60.4-4.7-60.4-10.5c0-5.8,27.1-10.5,60.4-10.5S210,195,210,200.8
			C210,206.6,183,211.2,149.6,211.2z"/>
		<path class="st0" d="M272.9,132.9L155.1,67.2c-3.4-1.9-7.6-1.9-11,0L27,132.9c-2.3,1.3-2.2,4.7,0.3,5.8c7.8,2.7,15.7,5.5,23.5,8.2
			c0.1,0,0.1,0,0.2,0.1c-0.4,7.4-0.6,14.9-0.3,22.3c-2.5,0.6-4.4,2.8-4.8,5.4c-0.4,2.5,0.8,5.2,3,6.6c-4.3,15.3-6.8,31.1-7.6,46.9
			c0,0.7-0.1,1.5,0.3,2.1c0.3,0.6,0.9,1,1.6,1.4c5.6,3.2,12.8,3.3,18.4,0.3c1-0.5,1.9-1.2,2.3-2.2c0.2-0.6,0.2-1.3,0.1-1.9
			c-1-15.8-3.6-31.4-8-46.6c2.1-1.4,3.3-4.1,2.9-6.6c-0.4-2.5-2.4-4.7-4.9-5.4c-0.1,0,0-2.4,0-2.6c0-4,0.1-8.1,0.2-12.2
			c0-2.1,0.1-4.2,0.2-6.3c2.8,1,5.6,2,8.4,2.9c2.2,0.8,8.6,4.5,10.5,2.5c0.7-0.7,1-1.7,1.4-2.6c2.4-5.8,7.8-10,13.8-12.1
			c2.5-0.9,5-1.4,7.6-1.8c3.6-0.5,7.3-0.5,11-0.4c18.6,0.5,37.3,0,55.9,0.3c13.8,0.3,27.4-0.8,41.2,1.1c4.7,0.6,9.4,1.6,13.4,3.9
			c2.3,1.3,4.5,3.2,6,5.4c1.1,1.6,1.4,5.2,2.8,6.4c2.3,2,7.5-1.4,9.9-2.2c4.9-1.7,9.9-3.4,14.8-5.2c7.3-2.5,14.5-5.1,21.9-7.6
			C275.2,137.7,275.3,134.2,272.9,132.9z"/>
	</g>
</g>
</svg>
