<svg width="250" height="169" viewBox="0 0 250 169" fill="none" xmlns="http://www.w3.org/2000/svg">
<path d="M169.153 76.0249H79.4531C63.4531 76.0249 50.4531 89.0249 50.4531 105.025V134.925C50.4531 142.025 83.5531 147.725 124.253 147.725C164.953 147.725 198.053 142.025 198.053 134.925V105.025C198.153 89.0249 185.153 76.0249 169.153 76.0249ZM124.253 145.425C90.8531 145.425 63.8531 140.725 63.8531 134.925C63.8531 129.125 90.9531 124.425 124.253 124.425C157.553 124.425 184.653 129.225 184.653 135.025C184.653 140.825 157.653 145.425 124.253 145.425Z" fill="#5A6270"/>
<path d="M247.553 67.125L129.753 1.425C126.353 -0.475 122.153 -0.475 118.753 1.425L1.65313 67.125C-0.646875 68.425 -0.546875 71.825 1.95312 72.925C9.75312 75.625 17.6531 78.425 25.4531 81.125C25.5531 81.125 25.5531 81.125 25.6531 81.225C25.2531 88.625 25.0531 96.125 25.3531 103.525C22.8531 104.125 20.9531 106.325 20.5531 108.925C20.1531 111.425 21.3531 114.125 23.5531 115.525C19.2531 130.825 16.7531 146.625 15.9531 162.425C15.9531 163.125 15.8531 163.925 16.2531 164.525C16.5531 165.125 17.1531 165.525 17.8531 165.925C23.4531 169.125 30.6531 169.225 36.2531 166.225C37.2531 165.725 38.1531 165.025 38.5531 164.025C38.7531 163.425 38.7531 162.725 38.6531 162.125C37.6531 146.325 35.0531 130.725 30.6531 115.525C32.7531 114.125 33.9531 111.425 33.5531 108.925C33.1531 106.425 31.1531 104.225 28.6531 103.525C28.5531 103.525 28.6531 101.125 28.6531 100.925C28.6531 96.925 28.7531 92.825 28.8531 88.725C28.8531 86.625 28.9531 84.525 29.0531 82.425C31.8531 83.425 34.6531 84.425 37.4531 85.325C39.6531 86.125 46.0531 89.825 47.9531 87.825C48.6531 87.125 48.9531 86.125 49.3531 85.225C51.7531 79.425 57.1531 75.225 63.1531 73.125C65.6531 72.225 68.1531 71.725 70.7531 71.325C74.3531 70.825 78.0531 70.825 81.7531 70.925C100.353 71.425 119.053 70.925 137.653 71.225C151.453 71.525 165.053 70.425 178.853 72.325C183.553 72.925 188.253 73.925 192.253 76.225C194.553 77.525 196.753 79.425 198.253 81.625C199.353 83.225 199.653 86.825 201.053 88.025C203.353 90.025 208.553 86.625 210.953 85.825C215.853 84.125 220.853 82.425 225.753 80.625C233.053 78.125 240.253 75.525 247.653 73.025C249.853 71.925 249.953 68.425 247.553 67.125Z" fill="#5A6270"/>
</svg>
